PathFileType	4	(X/Y/Z)	c:/Users/goper/Files/vsCode/490R/osim_files/C11/C11_Static02.trc
DataRate	CameraRate	NumFrames	NumMarkers	Units                	OrigDataRate	OrigDataStartFrame	OrigNumFrames
120.00	120.00	5	36	mm	120.0	245	978
                Frame#	Time	LPSI			LASI			LTH1			LTH2			LTH3			LTH4			LLFE			LMFE			LSH1			LSH2			LSH3			LSH4			LLMA			LMMA			LCAL			LMTP			LTOE			LMTP			RPSI			RASI			RTH1			RTH2			RTH3			RTH4			RLFE			RMFE			RSH1			RSH2			RSH3			RSH4			RLMA			RMMA			RCAL			RMTP			RTOE			RMTP		
		X1	Y1	Z1	X2	Y2	Z2	X3	Y3	Z3	X4	Y4	Z4	X5	Y5	Z5	X6	Y6	Z6	X7	Y7	Z7	X8	Y8	Z8	X9	Y9	Z9	X10	Y10	Z10	X11	Y11	Z11	X12	Y12	Z12	X13	Y13	Z13	X14	Y14	Z14	X15	Y15	Z15	X16	Y16	Z16	X17	Y17	Z17	X18	Y18	Z18	X19	Y19	Z19	X20	Y20	Z20	X21	Y21	Z21	X22	Y22	Z22	X23	Y23	Z23	X24	Y24	Z24	X25	Y25	Z25	X26	Y26	Z26	X27	Y27	Z27	X28	Y28	Z28	X29	Y29	Z29	X30	Y30	Z30	X31	Y31	Z31	X32	Y32	Z32	X33	Y33	Z33	X34	Y34	Z34	X35	Y35	Z35	X36	Y36	Z36

245	2.03333	-386.70142	1016.58209	509.87326	-211.41655	1009.89697	439.89508	-313.76791	600.46423	354.80466	-302.98718	554.07697	357.62695	-253.87991	609.61206	360.34146	-253.40897	564.23071	363.91748	-306.85696	515.46527	356.34937	-294.87170	503.14337	467.30057	-362.89948	410.06592	343.05933	-362.59305	365.22397	340.33691	-301.08566	406.45612	335.51807	-309.34860	361.88159	333.95975	-336.62463	94.68608	378.58569	-302.40790	110.41894	469.69360	-392.20990	58.48638	435.35223	-225.60907	39.94369	340.82394	-150.00540	57.32341	405.76730	-187.42369	45.08592	454.08466	-384.37042	1028.44788	596.35718	-222.75998	1002.81940	677.49072	-328.33072	604.95007	729.98914	-320.17767	561.79071	727.79053	-266.00174	609.37689	723.96625	-268.03833	566.32886	724.07068	-305.97952	520.16138	719.80103	-320.82635	493.51404	605.14673	-377.53192	412.17587	734.51306	-374.07782	366.32385	735.42566	-317.48224	408.88583	735.01001	-320.98199	362.89746	738.54529	-357.79468	97.50596	704.02185	-318.41208	106.20049	613.57892	-413.44043	59.77463	643.46735	-195.24229	49.20771	652.57043	-198.22115	61.89799	702.83795	-246.83624	39.52221	757.48480
246	2.04167	-388.54672	1016.97284	509.88898	-211.66905	1009.91632	439.74231	-313.84937	600.41827	354.76477	-303.08633	554.01550	357.58838	-253.96667	609.59546	360.26019	-253.46223	564.22943	363.85098	-306.90927	515.43884	356.31506	-294.89880	503.12491	467.24725	-362.90619	410.00461	343.03897	-362.60083	365.19168	340.32855	-301.05927	406.41855	335.47913	-309.36053	361.83112	333.94284	-336.63269	94.62814	378.59354	-302.44208	110.34007	469.72839	-392.18439	58.44686	435.34308	-225.62152	40.00258	340.77036	-149.99782	57.29468	405.79187	-187.42152	45.04386	454.09814	-384.55731	1028.47192	596.38342	-223.61710	1002.57184	677.05884	-328.13013	604.87177	729.94531	-319.95181	561.73657	727.77814	-265.80640	609.37378	723.89941	-267.82382	566.32465	723.99689	-305.77039	520.10272	719.76849	-320.64685	493.48816	605.13977	-377.36917	412.16681	734.51404	-373.86658	366.28159	735.41565	-317.25238	408.85327	734.98822	-320.79749	362.85486	738.53107	-357.81558	97.44769	704.01227	-318.42545	106.16179	613.59497	-413.13037	59.86393	643.25946	-195.23219	49.16527	652.58868	-198.20549	61.86267	702.82227	-246.83865	39.46789	757.49316
247	2.05000	-388.76608	1016.99164	509.98495	-211.88667	1009.90045	439.60275	-313.90704	600.36078	354.71210	-303.12933	553.98267	357.52374	-254.04710	609.56317	360.17905	-253.51631	564.19824	363.77698	-306.91812	515.40295	356.28168	-294.84018	503.13165	467.18762	-363.28671	409.80731	343.22913	-362.57797	365.16367	340.29764	-301.00323	406.39160	335.41940	-309.33859	361.77457	333.90463	-336.63116	94.60748	378.58600	-302.43451	110.32703	469.72562	-392.19867	58.45334	435.34091	-225.59575	39.99948	340.78210	-149.96391	57.27109	405.78610	-187.40585	45.01182	454.07919	-384.59009	1028.49182	596.44635	-223.57379	1002.52814	676.89276	-327.87708	604.83948	729.92035	-319.74188	561.72668	727.75775	-265.59726	609.35168	723.79791	-267.61340	566.33704	723.91370	-305.53653	520.06793	719.71979	-320.48434	493.44739	605.12433	-377.22159	412.18863	734.51367	-373.68542	366.28131	735.39062	-317.09436	408.80005	734.93762	-320.63409	362.84531	738.49506	-357.77747	97.44281	704.03070	-318.43076	106.10733	613.59998	-413.10742	59.85373	643.27594	-195.20168	49.14952	652.58002	-198.16736	61.84357	702.79950	-246.79597	39.42622	757.46991
248	2.05833	-389.01877	1016.98584	510.04736	-212.12772	1009.90411	439.44928	-313.98193	600.33075	354.66916	-303.22183	553.93835	357.50470	-254.14198	609.55133	360.09265	-253.61743	564.29138	363.73712	-306.95398	515.37372	356.22745	-294.92706	503.07431	467.12372	-362.87308	409.91901	343.01385	-362.54535	365.11325	340.28943	-301.03256	406.34198	335.38150	-309.35980	361.74054	333.87747	-336.62491	94.57601	378.59622	-302.44739	110.28585	469.71310	-392.20450	58.41373	435.34341	-225.57811	39.88084	340.84290	-149.97659	57.25776	405.76746	-187.41788	45.00653	454.08408	-384.70813	1028.45557	596.49585	-223.59338	1002.49432	676.70459	-327.73163	604.78839	729.88135	-319.59805	561.69385	727.73425	-265.46005	609.32666	723.72614	-267.46066	566.32538	723.83704	-305.38626	520.03406	719.67572	-320.38797	493.40244	605.09906	-377.10773	412.18036	734.50848	-373.58414	366.24701	735.38654	-316.98877	408.78369	734.90869	-320.47852	362.80243	738.45465	-357.80066	97.42556	704.03137	-318.40637	106.07106	613.59717	-413.13675	59.81105	643.27393	-195.22296	49.11327	652.56018	-198.17668	61.81967	702.78461	-246.81696	39.39834	757.47357
249	2.06667	-389.23212	1016.98456	510.09015	-212.34984	1009.93292	439.29852	-314.08072	600.30194	354.61929	-303.30301	553.91687	357.46512	-254.25288	609.55444	360.02740	-253.73175	564.29504	363.66177	-306.99451	515.36639	356.18198	-294.84882	503.14117	467.10272	-362.87320	409.87491	343.03485	-362.58847	365.07202	340.30011	-301.07306	406.30994	335.34534	-309.37643	361.74408	333.83804	-336.66434	94.55072	378.60510	-302.47705	110.29124	469.70840	-392.20193	58.37043	435.36188	-225.64304	39.86003	340.84561	-149.98779	57.29840	405.76819	-187.39526	45.04755	454.07117	-384.70285	1028.36865	596.53082	-223.61401	1002.48718	676.51312	-327.56000	604.78558	729.83380	-319.49838	561.69312	727.66223	-265.32016	609.32623	723.63342	-267.32709	566.34845	723.77203	-305.26428	520.01825	719.61938	-320.29645	493.35352	605.05865	-377.02872	412.16260	734.45105	-373.51309	366.25769	735.33502	-316.74017	408.85294	734.86340	-320.34488	362.82227	738.40436	-357.83194	97.43214	704.01343	-318.42908	106.07163	613.58112	-413.13181	59.78727	643.31390	-195.21509	49.13005	652.54865	-198.16211	61.85744	702.78821	-246.82512	39.41610	757.46631
